<svg width="46" height="59" viewBox="0 0 46 59" fill="none" xmlns="http://www.w3.org/2000/svg">
<path d="M23.7152 58.8989C23.42 58.8989 23.1264 58.8989 22.8312 58.8989C11.2254 58.8249 -0.0961136 57.469 0.000615425 42.1606C0.0653818 31.8947 6.82296 25.196 13.9784 18.1045L14.2088 17.8757L15.3931 19.0701L15.1627 19.2989C7.96183 26.4316 1.74258 32.5996 1.68286 42.1707C1.60295 54.7051 9.05529 57.1326 22.8421 57.2167C36.5987 57.3008 44.1099 54.9743 44.1906 42.4407C44.2512 32.8687 38.1102 26.6276 30.9993 19.394L30.7731 19.1643L31.9725 17.9868L32.1988 18.2164C39.2642 25.3987 45.9376 32.179 45.8729 42.4499C45.7778 57.3731 35.0047 58.8989 23.7152 58.8989Z" fill="#F2F3F3"/>
<path d="M31.0927 19.4178H31.0692L15.0878 19.316C14.5908 19.3129 14.0992 19.2119 13.6412 19.0187C13.1832 18.8256 12.7677 18.5442 12.4184 18.1905C11.7131 17.4761 11.3204 16.5109 11.3268 15.507C11.3331 14.5031 11.738 13.5429 12.4523 12.8376C13.1667 12.1323 14.1319 11.7396 15.1358 11.7459L31.1171 11.8477C32.1208 11.8542 33.0809 12.259 33.7861 12.9732C34.4914 13.6875 34.884 14.6526 34.8778 15.6563C34.8702 16.6557 34.4683 17.6116 33.7594 18.3161C33.0505 19.0205 32.0921 19.4165 31.0927 19.4178ZM15.1114 13.4282C14.5537 13.4264 14.0181 13.6462 13.6225 14.0393C13.2269 14.4324 13.0036 14.9665 13.0019 15.5242C13.0001 16.0819 13.2199 16.6175 13.613 17.0131C14.0061 17.4087 14.5402 17.632 15.0979 17.6338L31.0793 17.7356H31.0927C31.6481 17.7356 32.1809 17.5159 32.5749 17.1244C32.9688 16.733 33.192 16.2016 33.1955 15.6462C33.1991 15.0887 32.9811 14.5525 32.5894 14.1556C32.1978 13.7588 31.6646 13.5337 31.107 13.5299L15.1257 13.4282H15.1114Z" fill="#F2F3F3"/>
<path d="M31.2836 12.9629L29.6956 12.4069L32.3788 4.73839C31.6665 5.15358 30.888 5.44268 30.0774 5.59297C28.9368 5.754 27.7753 5.67976 26.6645 5.37481C25.5536 5.06987 24.517 4.5407 23.6185 3.81989C21.8561 2.55486 19.7719 1.81415 17.6065 1.68333C15.4411 1.5525 13.2828 2.03689 11.381 3.08054L15.6026 12.2336L14.0751 12.9385L9.53472 3.09064C9.45094 2.90873 9.43481 2.7029 9.48924 2.51017C9.54367 2.31743 9.66508 2.15044 9.83164 2.03923C9.90481 1.99045 17.2175 -2.78292 24.5925 2.44634C25.3087 3.03121 26.1358 3.46507 27.0241 3.7218C27.9124 3.97853 28.8434 4.05281 29.7612 3.94017C31.2755 3.60657 32.6192 2.73889 33.5462 1.49587C33.6609 1.32638 33.8333 1.20449 34.0313 1.15301C34.2294 1.10153 34.4394 1.12399 34.622 1.21619C34.8047 1.3084 34.9475 1.46402 35.0236 1.65391C35.0998 1.84381 35.1042 2.05496 35.0359 2.24783L31.2836 12.9629Z" fill="#F2F3F3"/>
<path d="M22.9338 49.6465H22.8934C21.3884 49.6887 19.9279 49.1334 18.8311 48.102C17.7343 47.0706 17.0904 45.647 17.04 44.1422L18.7223 44.1532C18.7755 45.2108 19.2442 46.2046 20.0265 46.9183C20.8088 47.6321 21.8413 48.008 22.8993 47.9643H22.9338C23.9872 48.0154 25.0184 47.6498 25.8043 46.9465C26.5903 46.2432 27.0678 45.2588 27.1335 44.2062C27.1332 43.7044 27.0274 43.2083 26.8229 42.7501C26.6185 42.2919 26.3199 41.8819 25.9467 41.5465C25.1274 40.7999 24.0574 40.3886 22.9489 40.3942C21.4439 40.4366 19.9832 39.8814 18.8864 38.85C17.7895 37.8185 17.1456 36.3947 17.0956 34.8899C17.1638 33.3929 17.8195 31.9831 18.9205 30.9665C20.0215 29.9499 21.479 29.4085 22.9767 29.4596H23.0179C24.523 29.4174 25.9836 29.9727 27.0805 31.0041C28.1775 32.0355 28.8216 33.4591 28.8721 34.9639L27.1899 34.953C27.1364 33.8944 26.6668 32.8998 25.8833 32.1859C25.0998 31.4721 24.0659 31.0968 23.007 31.1419H22.9767C21.9234 31.091 20.8924 31.4567 20.1066 32.16C19.3209 32.8632 18.8435 33.8475 18.7778 34.9C18.831 35.9586 19.3004 36.9533 20.0838 37.6673C20.8671 38.3813 21.9009 38.7568 22.9599 38.712C24.4873 38.7086 25.9604 39.2789 27.0872 40.3101C27.6326 40.8032 28.068 41.4055 28.3652 42.0779C28.6624 42.7503 28.8148 43.4777 28.8124 44.2129C28.745 45.7101 28.09 47.1203 26.9895 48.1375C25.8889 49.1548 24.4316 49.697 22.9338 49.6465Z" fill="#F2F3F3"/>
<path d="M22.0326 51.3088L22.1739 27.7574L23.8561 27.7675L23.7148 51.3189L22.0326 51.3088Z" fill="#F2F3F3"/>
</svg>
