<svg width="56" height="55" viewBox="0 0 56 55" fill="none" xmlns="http://www.w3.org/2000/svg">
<path d="M27.3493 8.51717H26.9491C26.5038 8.51533 26.074 8.35375 25.7378 8.0618C25.4015 7.76985 25.1813 7.36693 25.117 6.92631L24.641 2.74095C24.6066 2.47989 24.6284 2.21449 24.7049 1.96253C24.7814 1.71056 24.9107 1.47782 25.0844 1.27988C25.258 1.08194 25.472 0.923353 25.7118 0.814732C25.9517 0.706111 26.212 0.649956 26.4753 0.650024H27.8231C28.0879 0.65 28.3497 0.706818 28.5906 0.816641C28.8316 0.926464 29.0461 1.08673 29.2198 1.28661C29.3935 1.48649 29.5223 1.72133 29.5974 1.97525C29.6725 2.22917 29.6922 2.49626 29.6553 2.75847L29.1837 6.90748C29.1227 7.35157 28.9036 7.75878 28.5667 8.05444C28.2298 8.3501 27.7976 8.51438 27.3493 8.51717ZM26.4736 1.9637C26.3966 1.96359 26.3205 1.98006 26.2505 2.01198C26.1805 2.0439 26.1181 2.09053 26.0677 2.1487C26.0173 2.20687 25.98 2.27521 25.9584 2.34907C25.9368 2.42293 25.9313 2.50058 25.9424 2.57674L26.4184 6.76166C26.4402 6.88608 26.5052 6.9988 26.6019 7.07996C26.6987 7.16112 26.821 7.20549 26.9474 7.20525H27.3476C27.4767 7.2047 27.6014 7.15781 27.6989 7.0731C27.7963 6.9884 27.8602 6.87151 27.8787 6.74371L28.3504 2.59426C28.3635 2.51562 28.3593 2.43504 28.3379 2.35824C28.3164 2.28143 28.2784 2.21027 28.2264 2.1498C28.1762 2.09165 28.114 2.04506 28.0441 2.01324C27.9742 1.98142 27.8982 1.96511 27.8214 1.96545L26.4736 1.9637ZM17.728 12.0544C17.4593 12.0551 17.1938 11.9973 16.9496 11.8852C16.7055 11.7731 16.4886 11.6093 16.3141 11.4051L13.674 8.12307C13.5054 7.92088 13.3819 7.68501 13.3117 7.43124C13.2416 7.17747 13.2265 6.91165 13.2673 6.65157C13.3082 6.39148 13.4042 6.14312 13.5488 5.92309C13.6933 5.70307 13.8833 5.51646 14.1058 5.37574L15.2443 4.65497C15.468 4.51338 15.7196 4.42148 15.9819 4.38547C16.2443 4.34945 16.5113 4.37017 16.7649 4.44622C17.0185 4.52227 17.2529 4.65188 17.4521 4.82629C17.6514 5.0007 17.8109 5.21584 17.9198 5.45719L19.7401 9.21604C19.926 9.6238 19.9586 10.0849 19.8319 10.5148C19.7052 10.9446 19.4278 11.3144 19.0504 11.5561L18.7128 11.7703C18.4181 11.9564 18.0766 12.055 17.728 12.0544ZM16.2309 5.68139C16.1302 5.68134 16.0317 5.71039 15.9471 5.76503L14.8086 6.48579C14.7438 6.52691 14.6886 6.58144 14.6467 6.6457C14.6047 6.70996 14.5771 6.78247 14.5656 6.85832C14.554 6.93418 14.5589 7.01162 14.5798 7.08544C14.6007 7.15926 14.6372 7.22774 14.6869 7.28626L17.3273 10.5678C17.4122 10.6615 17.5274 10.7222 17.6527 10.7391C17.7779 10.756 17.9051 10.728 18.0118 10.6602L18.3489 10.4465C18.4577 10.3771 18.538 10.271 18.5752 10.1473C18.6123 10.0237 18.6038 9.89091 18.5512 9.77304L16.7309 6.01418C16.7 5.94069 16.6533 5.8749 16.5941 5.82147C16.535 5.76804 16.4648 5.72829 16.3885 5.70503C16.3374 5.68936 16.2843 5.68139 16.2309 5.68139ZM36.5665 12.054C36.2192 12.0545 35.879 11.9561 35.5856 11.7703L35.2476 11.5561C34.8721 11.3166 34.595 10.9502 34.4669 10.5236C34.3388 10.097 34.3681 9.63859 34.5496 9.23181L36.3856 5.44099C36.4962 5.20203 36.6565 4.98944 36.8558 4.81742C37.0551 4.6454 37.2888 4.51792 37.5414 4.4435C37.7939 4.36909 38.0594 4.34947 38.3202 4.38593C38.5809 4.4224 38.8308 4.51413 39.0533 4.65497L40.1918 5.37574C40.4156 5.51725 40.6064 5.70518 40.7513 5.9268C40.8961 6.14842 40.9917 6.39856 41.0316 6.66032C41.0715 6.92209 41.0546 7.18935 40.9823 7.44405C40.9099 7.69875 40.7837 7.93494 40.6122 8.13664L37.9958 11.3915C37.8199 11.599 37.6009 11.7658 37.3541 11.8802C37.1073 11.9946 36.8385 12.0539 36.5665 12.054ZM38.0676 5.68139C38.0143 5.6813 37.9613 5.68912 37.9104 5.7046C37.8367 5.72624 37.7686 5.76366 37.7109 5.81424C37.6531 5.86483 37.607 5.92737 37.5758 5.99754L35.7398 9.78836C35.6919 9.90508 35.6867 10.0349 35.7252 10.1551C35.7636 10.2752 35.8432 10.378 35.9499 10.4452L36.2876 10.6589C36.3968 10.7277 36.5271 10.7548 36.6548 10.7353C36.7824 10.7159 36.8987 10.6511 36.9825 10.5529L39.6011 7.30158C39.654 7.24208 39.6933 7.17166 39.716 7.0953C39.7387 7.01894 39.7443 6.93852 39.7324 6.85975C39.7213 6.78382 39.6938 6.71122 39.6518 6.64695C39.6099 6.58269 39.5544 6.5283 39.4894 6.48755L38.3509 5.76678C38.2667 5.7116 38.1683 5.68195 38.0676 5.68139ZM52.3459 20.4475H51.6921C51.6596 19.4681 51.2693 18.5346 50.595 17.8235C49.9208 17.1124 49.0094 16.673 48.0331 16.5884C47.6538 15.4153 46.8682 14.4161 45.8177 13.7709C44.7671 13.1256 43.5207 12.8767 42.3029 13.0688C41.0851 13.261 39.9759 13.8817 39.1751 14.8191C38.3743 15.7565 37.9345 16.949 37.9349 18.1819V18.7743H36.0669V17.0538C36.0671 16.5342 35.9128 16.0262 35.6236 15.5945C35.3344 15.1627 34.9233 14.8267 34.4427 14.6292C33.9621 14.4316 33.4336 14.3814 32.9243 14.485C32.4151 14.5885 31.9482 14.8412 31.5829 15.2108C31.3222 14.8736 30.9831 14.6052 30.595 14.4291C30.2069 14.253 29.7817 14.1745 29.3563 14.2004C28.9309 14.2263 28.5183 14.3559 28.1544 14.5778C27.7906 14.7996 27.4865 15.1072 27.2688 15.4735C26.9297 15.1885 26.5239 14.9943 26.0893 14.9089C25.6547 14.8236 25.2055 14.85 24.7839 14.9857C24.3623 15.1213 23.982 15.3618 23.6787 15.6845C23.3754 16.0073 23.1589 16.4017 23.0497 16.831C22.6732 16.5926 22.2421 16.4544 21.7972 16.4295C21.3524 16.4045 20.9085 16.4935 20.5077 16.6882C20.1069 16.8828 19.7625 17.1766 19.5071 17.5417C19.2516 17.9068 19.0937 18.3311 19.0482 18.7743H17.2393V18.1819C17.2406 16.9477 16.8008 15.7536 15.9992 14.8152C15.1975 13.8768 14.0868 13.2559 12.8676 13.0644C11.6483 12.8729 10.4008 13.1235 9.35008 13.771C8.29937 14.4185 7.51468 15.4202 7.13762 16.5954C6.16234 16.6793 5.25165 17.1179 4.57787 17.8279C3.90409 18.538 3.51393 19.4705 3.48123 20.4488H2.82834C2.07865 20.4497 1.35992 20.7479 0.829733 21.2779C0.299543 21.8079 0.00115868 22.5266 0 23.2763V23.9388C0.000811363 24.6887 0.299056 25.4076 0.829296 25.9378C1.35954 26.4681 2.07846 26.7663 2.82834 26.7671H3.48211C3.51445 27.7466 3.90468 28.6802 4.57896 29.3914C5.25323 30.1025 6.16477 30.5419 7.14112 30.6263C7.49986 31.7381 8.22458 32.6957 9.19717 33.343C10.1698 33.9903 11.3329 34.2891 12.4971 34.1908C13.6612 34.0925 14.7578 33.6028 15.608 32.8016C16.4583 32.0004 17.0121 30.9348 17.1793 29.7785C17.4631 31.8635 17.9049 33.9238 18.5009 35.9418C19.1542 38.3634 19.7708 40.65 19.7708 42.7655V52.3478C19.7713 52.8803 19.9831 53.3907 20.3596 53.7672C20.7361 54.1437 21.2465 54.3554 21.7789 54.356H32.3163C32.8488 54.3554 33.3592 54.1437 33.7357 53.7672C34.1122 53.3907 34.3239 52.8803 34.3245 52.3478V42.1305C34.3245 39.9849 34.92 39.1288 36.2486 37.2209C37.3202 35.7173 38.095 34.023 38.5313 32.2289C38.5777 32.0288 38.6075 31.8265 38.6373 31.6242C39.1369 32.4911 39.8775 33.1944 40.7691 33.6485C41.6606 34.1026 42.6649 34.2881 43.6599 34.1824C44.6549 34.0767 45.5978 33.6844 46.3741 33.0531C47.1504 32.4219 47.7267 31.5788 48.0331 30.6263C49.0094 30.5419 49.921 30.1025 50.5953 29.3914C51.2695 28.6802 51.6598 27.7466 51.6921 26.7671H52.3459C53.0958 26.7663 53.8147 26.4681 54.3449 25.9378C54.8752 25.4076 55.1734 24.6887 55.1742 23.9388V23.2763C55.1734 22.5264 54.8752 21.8074 54.3449 21.2771C53.8147 20.7468 53.0958 20.4484 52.3459 20.4475ZM3.47554 25.4535H2.82834C2.42676 25.453 2.04177 25.2933 1.75782 25.0093C1.47386 24.7254 1.31414 24.3404 1.31367 23.9388V23.2763C1.31414 22.8747 1.47385 22.4896 1.75779 22.2056C2.04173 21.9216 2.42672 21.7617 2.82834 21.7612H3.47554V25.4535ZM4.78921 26.6358V20.5767C4.79043 19.9647 5.00005 19.3715 5.38355 18.8946C5.76704 18.4177 6.30154 18.0857 6.89897 17.9533C6.89546 18.0299 6.88758 18.1048 6.88758 18.1819V29.0328C6.88758 29.1112 6.89546 29.1874 6.89897 29.2649C6.30121 29.1318 5.7666 28.7991 5.38313 28.3216C4.99965 27.8442 4.79019 27.2503 4.78921 26.638V26.6358ZM15.9256 29.0306C15.9256 30.0549 15.5187 31.0373 14.7944 31.7616C14.0701 32.4859 13.0878 32.8928 12.0634 32.8928C11.0391 32.8928 10.0568 32.4859 9.33246 31.7616C8.60816 31.0373 8.20125 30.0549 8.20125 29.0306V18.1819C8.20125 17.1575 8.60816 16.1752 9.33246 15.4509C10.0568 14.7266 11.0391 14.3197 12.0634 14.3197C13.0878 14.3197 14.0701 14.7266 14.7944 15.4509C15.5187 16.1752 15.9256 17.1575 15.9256 18.1819V29.0306ZM32.1372 17.0538C32.1372 16.7069 32.275 16.3743 32.5203 16.129C32.7656 15.8837 33.0983 15.7459 33.4452 15.7459C33.7921 15.7459 34.1248 15.8837 34.3701 16.129C34.6154 16.3743 34.7532 16.7069 34.7532 17.0538V22.3549C34.1629 21.523 33.5963 20.7492 33.2179 20.3008C32.9299 19.9588 32.5573 19.6982 32.1372 19.545V17.0538ZM28.2076 16.8169C28.2076 16.47 28.3454 16.1374 28.5907 15.8921C28.836 15.6468 29.1687 15.509 29.5156 15.509C29.8625 15.509 30.1952 15.6468 30.4405 15.8921C30.6858 16.1374 30.8236 16.47 30.8236 16.8169V19.4005C30.1523 19.4786 29.5271 19.7814 29.0497 20.2596C28.0123 21.2961 27.9795 22.901 28.9555 24.2681C28.7324 24.1627 28.5438 23.9962 28.4114 23.788C28.279 23.5797 28.2084 23.3382 28.2076 23.0915V16.8169ZM24.2784 17.4817C24.2752 17.3079 24.3067 17.1353 24.371 16.9738C24.4353 16.8124 24.5311 16.6654 24.6529 16.5414C24.7746 16.4174 24.9199 16.3189 25.0801 16.2516C25.2404 16.1844 25.4124 16.1498 25.5862 16.1498C25.7599 16.1498 25.932 16.1844 26.0922 16.2516C26.2525 16.3189 26.3977 16.4174 26.5195 16.5414C26.6412 16.6654 26.737 16.8124 26.8013 16.9738C26.8656 17.1353 26.8971 17.3079 26.8939 17.4817V23.5193C26.8971 23.6931 26.8656 23.8657 26.8013 24.0271C26.737 24.1886 26.6412 24.3356 26.5195 24.4596C26.3977 24.5836 26.2525 24.6821 26.0922 24.7493C25.932 24.8166 25.7599 24.8512 25.5862 24.8512C25.4124 24.8512 25.2404 24.8166 25.0801 24.7493C24.9199 24.6821 24.7746 24.5836 24.6529 24.4596C24.5311 24.3356 24.4353 24.1886 24.371 24.0271C24.3067 23.8657 24.2752 23.6931 24.2784 23.5193V17.4817ZM20.3488 19.0471C20.3488 18.7002 20.4866 18.3675 20.7319 18.1222C20.9772 17.8769 21.3099 17.7391 21.6568 17.7391C22.0037 17.7391 22.3363 17.8769 22.5816 18.1222C22.8269 18.3675 22.9647 18.7002 22.9647 19.0471V23.7558C22.9647 24.1027 22.8269 24.4353 22.5816 24.6806C22.3363 24.9259 22.0037 25.0637 21.6568 25.0637C21.3099 25.0637 20.9772 24.9259 20.7319 24.6806C20.4866 24.4353 20.3488 24.1027 20.3488 23.7558V19.0471ZM17.2398 20.0858H19.0351V23.7558C19.0344 24.3022 19.2047 24.8351 19.522 25.2799C19.8394 25.7248 20.288 26.0591 20.8049 26.2363C21.3218 26.4134 21.8812 26.4244 22.4047 26.2676C22.9281 26.1109 23.3895 25.7944 23.724 25.3624C23.9944 25.6362 24.3218 25.8471 24.6829 25.9799C25.0441 26.1127 25.4301 26.1642 25.8134 26.1308C26.1968 26.0973 26.568 25.9797 26.9007 25.7863C27.2334 25.593 27.5194 25.3286 27.7382 25.0121C28.2207 25.462 28.8558 25.7124 29.5156 25.7127C29.6262 25.7122 29.7366 25.7046 29.8462 25.6899C30.0879 26.1195 30.3432 26.6095 30.6077 27.1428H17.2393L17.2398 20.0858ZM17.6987 28.4578H17.6847H17.7109C17.7061 28.4565 17.703 28.4578 17.6987 28.4578ZM37.2522 31.9312C36.8486 33.5759 36.1341 35.1282 35.1473 36.5045C33.7692 38.482 33.0108 39.5697 33.0108 42.1305V52.3478C33.0106 52.532 32.9373 52.7085 32.8072 52.8387C32.677 52.9688 32.5005 53.0421 32.3163 53.0423H21.7798C21.5957 53.0421 21.4192 52.9688 21.289 52.8387C21.1588 52.7085 21.0855 52.532 21.0853 52.3478V42.7655C21.0853 40.4762 20.446 38.1072 19.769 35.5994C19.1358 33.2558 18.4969 30.84 18.3914 28.4565H29.2467C26.957 29.2044 25.6275 31.5099 25.1717 32.9287C25.1199 33.0941 25.1357 33.2733 25.2154 33.4272C25.2952 33.581 25.4326 33.6971 25.5976 33.7502C25.7626 33.8032 25.9419 33.7889 26.0963 33.7103C26.2508 33.6317 26.368 33.4953 26.4223 33.3307C26.8501 31.9995 28.1927 29.7019 30.5074 29.5337C30.7963 29.5124 31.0756 29.4207 31.3209 29.2666C31.5663 29.1124 31.7701 28.9006 31.9148 28.6496C32.0628 28.3946 32.1461 28.1072 32.1574 27.8126C32.1688 27.518 32.1079 27.225 31.98 26.9594C31.4338 25.7652 30.7857 24.6204 30.0428 23.5377C29.5716 22.8949 29.2721 21.8939 29.9776 21.1884C30.1437 21.0234 30.3419 20.8941 30.5599 20.8087C30.778 20.7233 31.0112 20.6835 31.2452 20.6918C31.4294 20.6957 31.6107 20.7382 31.7773 20.8167C31.944 20.8951 32.0923 21.0078 32.2125 21.1472C33.2933 22.4294 36.1426 26.7085 36.1811 26.7649C36.7128 27.5024 37.0829 28.3437 37.2674 29.2339C37.4519 30.1241 37.447 31.0432 37.2522 31.9312ZM37.9349 27.1818C37.7438 26.7776 37.5196 26.3899 37.2645 26.0227C37.2115 25.9435 36.6265 25.0659 35.8952 23.9988C36.0059 23.709 36.0635 23.4017 36.0651 23.0915V20.088H37.9332L37.9349 27.1818ZM46.973 29.0328C46.973 30.0571 46.5661 31.0395 45.8418 31.7638C45.1175 32.4881 44.1351 32.895 43.1108 32.895C42.0864 32.895 41.1041 32.4881 40.3798 31.7638C39.6555 31.0395 39.2486 30.0571 39.2486 29.0328V18.1819C39.2486 17.1575 39.6555 16.1752 40.3798 15.4509C41.1041 14.7266 42.0864 14.3197 43.1108 14.3197C44.1351 14.3197 45.1175 14.7266 45.8418 15.4509C46.5661 16.1752 46.973 17.1575 46.973 18.1819V29.0328ZM50.3846 26.638C50.3839 27.2504 50.1747 27.8444 49.7912 28.322C49.4078 28.7996 48.8731 29.1323 48.2753 29.2653C48.2788 29.1882 48.2866 29.112 48.2866 29.0337V18.1819C48.2866 18.1039 48.2788 18.0277 48.2753 17.9502C48.873 18.0833 49.4077 18.4161 49.7911 18.8937C50.1745 19.3712 50.3838 19.9651 50.3846 20.5776V26.638ZM53.8605 23.9388C53.8601 24.3404 53.7004 24.7254 53.4164 25.0093C53.1324 25.2933 52.7475 25.453 52.3459 25.4535H51.6982V21.7612H52.3459C52.7475 21.7617 53.1325 21.9216 53.4164 22.2056C53.7004 22.4896 53.8601 22.8747 53.8605 23.2763V23.9388Z" fill="#F2F3F3"/>
</svg>
