<svg width="54" height="54" viewBox="0 0 54 54" fill="none" xmlns="http://www.w3.org/2000/svg">
<path d="M53.184 0.910694C53.1833 0.901198 53.1808 0.892462 53.1798 0.88322C53.1777 0.864456 53.1749 0.845787 53.1713 0.827259C53.1688 0.814852 53.1679 0.801938 53.1646 0.789784C53.1619 0.779402 53.1578 0.769906 53.1546 0.759904C53.1496 0.744066 53.144 0.728438 53.1378 0.71306C53.1332 0.701665 53.1295 0.689764 53.1243 0.678749C53.1186 0.666848 53.1119 0.655707 53.1056 0.644312C53.099 0.632238 53.0919 0.620413 53.0845 0.608862C53.078 0.598607 53.0719 0.588225 53.065 0.578476C53.056 0.566383 53.0466 0.554642 53.0367 0.543279C53.0214 0.524893 53.005 0.507314 52.9879 0.490611C52.9761 0.479623 52.9639 0.469065 52.9514 0.458959C52.9429 0.451861 52.9342 0.444938 52.9254 0.438195C52.9154 0.430979 52.9053 0.424395 52.8949 0.417558C52.881 0.40869 52.8667 0.400328 52.8521 0.39249C52.8428 0.387426 52.8339 0.381855 52.8243 0.377297C52.8126 0.371726 52.8004 0.367548 52.7883 0.362611C52.7725 0.35631 52.7564 0.350608 52.7401 0.345519C52.7306 0.342607 52.7216 0.338429 52.712 0.335897C52.6988 0.332478 52.6849 0.331085 52.6713 0.328553C52.6543 0.325291 52.6372 0.322672 52.6199 0.320704C52.6098 0.319564 52.6002 0.316652 52.5898 0.316019C52.5871 0.315893 52.5661 0.314626 52.5304 0.313107C52.0265 0.289305 48.516 0.181309 43.6474 1.40522C43.5069 1.44012 43.3666 1.47612 43.2267 1.51322C43.1219 1.54069 43.0164 1.56905 42.9104 1.59779C42.8595 1.61159 42.8088 1.62527 42.7575 1.63945C42.5903 1.68545 42.4235 1.73259 42.257 1.78087L42.2557 1.78137C36.6107 3.42195 28.529 7.20295 21.9134 15.8991C19.8405 15.6212 16.1112 15.5393 12.0918 17.4559C6.84215 19.9591 2.78692 25.0103 0.0387777 32.4691C-0.00904936 32.5994 -0.0127374 32.7418 0.0282809 32.8744C0.0692992 33.007 0.152751 33.1225 0.2658 33.203C0.378849 33.2836 0.515231 33.3248 0.653967 33.3202C0.792703 33.3157 0.926108 33.2657 1.03366 33.178C1.11684 33.1101 9.13551 26.6326 15.0587 28.3828C14.8048 29.0387 14.5617 29.6988 14.3296 30.3627L14.0405 30.0738C13.9218 29.9551 13.7608 29.8884 13.5929 29.8884C13.425 29.8884 13.264 29.9551 13.1453 30.0738L11.4057 31.8134C11.3469 31.8722 11.3003 31.9419 11.2685 32.0187C11.2366 32.0955 11.2203 32.1778 11.2203 32.2609C11.2203 32.3441 11.2366 32.4264 11.2685 32.5032C11.3003 32.58 11.3469 32.6497 11.4057 32.7085L12.7929 34.0957L10.5445 36.3443C10.4857 36.403 10.4391 36.4728 10.4073 36.5496C10.3755 36.6264 10.3591 36.7087 10.3591 36.7918C10.3591 36.875 10.3755 36.9573 10.4073 37.0341C10.4391 37.1109 10.4857 37.1806 10.5445 37.2394L16.2605 42.9553C16.3192 43.0142 16.389 43.0609 16.4658 43.0928C16.5426 43.1246 16.625 43.1409 16.7081 43.1408C16.7913 43.1409 16.8737 43.1246 16.9505 43.0928C17.0273 43.0609 17.0971 43.0142 17.1558 42.9553L19.4044 40.7069L20.7909 42.0934C20.8496 42.1523 20.9194 42.199 20.9962 42.2308C21.073 42.2626 21.1554 42.279 21.2385 42.2789C21.4006 42.2789 21.5625 42.2171 21.6862 42.0934L23.4258 40.3538C23.4846 40.295 23.5312 40.2253 23.5631 40.1485C23.5949 40.0717 23.6113 39.9894 23.6113 39.9063C23.6113 39.8231 23.5949 39.7408 23.5631 39.664C23.5312 39.5872 23.4846 39.5175 23.4258 39.4587L23.1374 39.1703C23.8014 38.9383 24.4614 38.6952 25.1173 38.4412C26.8674 44.3642 20.39 52.3832 20.322 52.4661C20.2463 52.5589 20.1983 52.6712 20.1839 52.7902C20.1694 52.9091 20.189 53.0297 20.2403 53.1379C20.2916 53.2462 20.3726 53.3377 20.4738 53.4017C20.575 53.4658 20.6923 53.4999 20.8121 53.5C20.8852 53.5 20.9591 53.4873 21.0308 53.4608C28.4896 50.7127 33.5408 46.6576 36.0441 41.4079C37.9608 37.3887 37.879 33.6592 37.601 31.5865C46.2979 24.9704 50.0789 16.888 51.7194 11.243C53.4253 5.37094 53.1946 1.08997 53.184 0.910694ZM2.03322 30.8788C4.61829 24.8506 8.17887 20.7246 12.6366 18.599C15.9528 17.0177 19.0525 16.9026 21.049 17.0774C18.9148 20.0854 17.0618 23.4841 15.5296 27.2032C10.6989 25.6961 4.91291 28.9328 2.03322 30.8788ZM16.7079 41.6128L11.8871 36.7921L13.6879 34.9911L18.5089 39.8119L16.7079 41.6128ZM21.2382 40.7509L19.8521 39.3648L19.8518 39.3644L19.8516 39.3641L14.136 33.6486L14.1357 33.6482L14.1355 33.6479L12.7486 32.2611L13.593 31.4167L21.5287 39.3526L21.5296 39.3534L22.0828 39.9065L21.2382 40.7509ZM34.9011 40.8634C32.7755 45.321 28.6495 48.8814 22.6212 51.4666C24.5673 48.5871 27.8038 42.801 26.297 37.9706C30.0161 36.4382 33.4147 34.5853 36.4228 32.451C36.5977 34.4475 36.4824 37.5473 34.9011 40.8634ZM36.5413 30.8008C33.2638 33.2492 29.4697 35.3433 25.2639 37.0249L25.2628 37.0254C24.2604 37.426 23.2107 37.8105 22.1401 38.1734L15.3269 31.36C15.6891 30.2909 16.0738 29.241 16.4752 28.2362C18.1568 24.0306 20.251 20.2363 22.6993 16.9588C28.8898 8.67223 36.4532 4.90883 41.9361 3.20077C42.3692 5.25674 43.3762 7.11914 44.8785 8.62146C46.3809 10.1238 48.2434 11.1308 50.2994 11.5639C48.5913 17.0472 44.8279 24.6103 36.5413 30.8008ZM51.9312 1.73567L51.9309 1.77555C51.9304 1.83637 51.9295 1.89718 51.9284 1.95799C51.9273 2.02091 51.9257 2.08637 51.9241 2.15486L51.9233 2.1812C51.9217 2.23982 51.9199 2.30084 51.9178 2.36339L51.9154 2.42758C51.9132 2.48417 51.9109 2.54241 51.9083 2.60191L51.9057 2.66167C51.9022 2.74042 51.8981 2.82145 51.8936 2.90527L51.8912 2.94768C51.8857 3.04727 51.8797 3.14683 51.873 3.24635C51.8685 3.31433 51.8637 3.38359 51.8586 3.45423C51.8567 3.47943 51.8551 3.50412 51.8531 3.52969C51.846 3.62439 51.8385 3.721 51.83 3.82013L51.8261 3.86609C51.8188 3.95104 51.811 4.03764 51.8027 4.12576C51.7999 4.15716 51.7967 4.18894 51.7937 4.22072C51.786 4.29997 51.7779 4.38049 51.7695 4.46216L51.7605 4.54926C51.7469 4.67628 51.7327 4.80323 51.7177 4.9301C51.706 5.02923 51.6937 5.13001 51.6808 5.23205L51.6673 5.33651C51.6553 5.42868 51.643 5.52081 51.6302 5.61289C51.6259 5.64429 51.6218 5.67531 51.6172 5.70696C51.5815 5.96192 51.5428 6.21646 51.5012 6.47053C51.4953 6.5075 51.4891 6.54459 51.4829 6.58182C51.4603 6.71835 51.4369 6.85475 51.4127 6.99101C51.3886 7.12775 51.3634 7.26587 51.3368 7.40603L51.3311 7.4354C51.299 7.60464 51.2655 7.77362 51.2308 7.94234C51.2079 8.05438 51.1842 8.16732 51.1598 8.28127C51.1522 8.31646 51.1448 8.35153 51.1371 8.38686C51.1045 8.53679 51.0711 8.68652 51.0367 8.83606L51.032 8.85644C50.9613 9.16197 50.8868 9.46661 50.8086 9.77029C50.7989 9.80802 50.7894 9.8455 50.7796 9.88335C50.7397 10.0365 50.6984 10.1909 50.6556 10.3466C48.802 9.9754 47.1234 9.07636 45.7729 7.72597C44.4227 6.3757 43.5236 4.69701 43.1525 2.84335C43.3105 2.8 43.4689 2.75771 43.6275 2.71649L43.6955 2.69902C43.8406 2.66155 43.9848 2.62521 44.1278 2.59014L44.1784 2.57761C47.8666 1.67755 50.7496 1.56842 51.9311 1.56855L51.9312 1.58057C51.932 1.58184 51.932 1.58298 51.932 1.58386C51.932 1.63147 51.9317 1.68287 51.9312 1.73567Z" fill="#F2F3F3"/>
<path d="M35.4189 12.72C32.4628 12.72 30.0578 15.125 30.0578 18.0812C30.0578 21.0374 32.4628 23.4425 35.4189 23.4425C38.3752 23.4425 40.7803 21.0374 40.7803 18.0812C40.7803 15.1251 38.3752 12.72 35.4189 12.72ZM35.4189 22.1763C33.1609 22.1763 31.3238 20.3392 31.3238 18.081C31.3238 15.823 33.1609 13.9859 35.4189 13.9859C37.6771 13.9859 39.5142 15.823 39.5142 18.081C39.5142 20.3392 37.6771 22.1763 35.4189 22.1763ZM12.0333 41.4668C11.9146 41.3481 11.7536 41.2814 11.5857 41.2814C11.4178 41.2814 11.2568 41.3481 11.1381 41.4668L3.68242 48.9223C3.59378 49.0108 3.5334 49.1236 3.50892 49.2464C3.48444 49.3693 3.49696 49.4966 3.5449 49.6123C3.59284 49.728 3.67404 49.8269 3.77821 49.8965C3.88239 49.966 4.00485 50.003 4.1301 50.0029C4.21326 50.003 4.29563 49.9867 4.37245 49.9548C4.44928 49.923 4.51906 49.8763 4.57779 49.8174L12.0334 42.3619C12.0922 42.3031 12.1388 42.2333 12.1706 42.1565C12.2024 42.0798 12.2188 41.9974 12.2188 41.9143C12.2188 41.8312 12.2024 41.7489 12.1706 41.6721C12.1387 41.5953 12.0921 41.5256 12.0333 41.4668ZM14.894 44.3275C14.7753 44.2088 14.6143 44.1421 14.4464 44.1421C14.2785 44.1421 14.1175 44.2088 13.9988 44.3275L9.13033 49.1959C9.04169 49.2844 8.98131 49.3972 8.95683 49.52C8.93235 49.6429 8.94487 49.7702 8.99281 49.8859C9.04075 50.0016 9.12195 50.1005 9.22612 50.17C9.3303 50.2396 9.45277 50.2766 9.57801 50.2765C9.74007 50.2765 9.902 50.2147 10.0257 50.091L14.8941 45.2226C15.0128 45.1039 15.0794 44.9429 15.0794 44.775C15.0794 44.6072 15.0127 44.4462 14.894 44.3275ZM20.144 44.7991C20.0253 44.6804 19.8643 44.6137 19.6964 44.6137C19.5285 44.6137 19.3675 44.6804 19.2488 44.7991L14.1465 49.9014C14.0579 49.9899 13.9975 50.1027 13.973 50.2255C13.9485 50.3483 13.9611 50.4757 14.009 50.5914C14.0569 50.7071 14.1381 50.806 14.2423 50.8755C14.3465 50.945 14.4689 50.9821 14.5942 50.982C14.7563 50.982 14.9182 50.9202 15.0419 50.7965L20.1442 45.6942C20.2029 45.6354 20.2495 45.5657 20.2813 45.4889C20.3131 45.4121 20.3295 45.3298 20.3295 45.2466C20.3295 45.1635 20.3131 45.0812 20.2813 45.0044C20.2494 44.9276 20.2028 44.8579 20.144 44.7991ZM8.70113 34.2512C8.76113 34.1927 8.80892 34.1228 8.84172 34.0457C8.87452 33.9686 8.89168 33.8857 8.89221 33.8019C8.89273 33.7181 8.87661 33.635 8.84478 33.5575C8.81295 33.48 8.76604 33.4096 8.70678 33.3503C8.64751 33.291 8.57707 33.2442 8.49954 33.2123C8.42201 33.1805 8.33893 33.1644 8.25513 33.1649C8.17132 33.1655 8.08846 33.1826 8.01134 33.2155C7.93423 33.2483 7.86439 33.2961 7.80589 33.3561L2.70362 38.4584C2.61498 38.5468 2.5546 38.6596 2.53012 38.7825C2.50564 38.9053 2.51816 39.0326 2.5661 39.1484C2.61404 39.2641 2.69524 39.363 2.79941 39.4325C2.90359 39.502 3.02605 39.5391 3.1513 39.5389C3.31336 39.5389 3.47529 39.4772 3.59898 39.3535L8.70113 34.2512ZM4.30419 44.3695L9.17236 39.5011C9.23237 39.4426 9.28015 39.3727 9.31295 39.2956C9.34575 39.2185 9.36292 39.1356 9.36344 39.0518C9.36397 38.968 9.34784 38.8849 9.31601 38.8074C9.28418 38.7299 9.23727 38.6595 9.17801 38.6002C9.11874 38.5409 9.0483 38.494 8.97077 38.4622C8.89324 38.4304 8.81016 38.4143 8.72636 38.4148C8.64255 38.4154 8.55969 38.4325 8.48257 38.4654C8.40546 38.4982 8.33562 38.546 8.27712 38.606L3.40895 43.4744C3.32031 43.5629 3.25993 43.6757 3.23545 43.7985C3.21097 43.9214 3.22349 44.0487 3.27143 44.1644C3.31937 44.2801 3.40056 44.379 3.50474 44.4485C3.60892 44.5181 3.73138 44.5551 3.85663 44.555C3.93978 44.5551 4.02212 44.5388 4.09893 44.507C4.17574 44.4751 4.2455 44.4284 4.30419 44.3695Z" fill="#F2F3F3"/>
</svg>
