<svg width="55" height="55" viewBox="0 0 55 55" fill="none" xmlns="http://www.w3.org/2000/svg">
<path d="M29.7161 34.1133C27.6507 34.113 25.6173 33.6034 23.796 32.6295C21.9746 31.6556 20.4216 30.2476 19.2744 28.5301C18.1271 26.8127 17.4212 24.8388 17.2191 22.7833C17.0169 20.7279 17.3248 18.6543 18.1154 16.7463C18.9061 14.8382 20.1551 13.1546 21.7518 11.8446C23.3486 10.5346 25.2437 9.63853 27.2695 9.23587C29.2952 8.83321 31.389 8.93635 33.3653 9.53615C35.3417 10.136 37.1396 11.2139 38.5998 12.6745C40.3571 14.4308 41.5539 16.6689 42.0387 19.1056C42.5236 21.5423 42.2747 24.068 41.3236 26.3632C40.3726 28.6584 38.762 30.6199 36.6958 31.9995C34.6296 33.3791 32.2005 34.1147 29.7161 34.1133ZM29.7161 9.83129C27.0034 9.83167 24.3748 10.7726 22.2782 12.4937C20.1815 14.2149 18.7464 16.6097 18.2175 19.2703C17.6885 21.9309 18.0984 24.6925 19.3774 27.0848C20.6563 29.477 22.7251 31.3518 25.2314 32.3897C27.7376 33.4276 30.5262 33.5644 33.122 32.7769C35.7178 31.9893 37.9602 30.3261 39.4672 28.0705C40.9742 25.815 41.6525 23.1067 41.3866 20.4072C41.1206 17.7076 39.9269 15.1837 38.0088 13.2656C36.9222 12.1733 35.6298 11.3074 34.2064 10.7179C32.783 10.1284 31.2568 9.82705 29.7161 9.83129Z" fill="#F2F3F3"/>
<path d="M39.3669 34.7521C39.256 34.7521 39.1497 34.708 39.0713 34.6296L36.3021 31.8604C36.226 31.7815 36.1838 31.676 36.1848 31.5664C36.1857 31.4568 36.2297 31.3519 36.3072 31.2744C36.3847 31.1969 36.4895 31.153 36.5991 31.152C36.7087 31.151 36.8143 31.1932 36.8931 31.2693L39.3669 33.743L41.9029 31.2066L39.4287 28.7329C39.3504 28.6545 39.3063 28.5481 39.3064 28.4372C39.3064 28.3263 39.3505 28.22 39.4289 28.1416C39.5074 28.0633 39.6137 28.0192 39.7246 28.0193C39.8355 28.0193 39.9418 28.0634 40.0202 28.1418L42.7899 30.9111C42.8682 30.9895 42.9123 31.0958 42.9123 31.2066C42.9123 31.3175 42.8682 31.4238 42.7899 31.5021L39.6624 34.6305C39.5839 34.7085 39.4776 34.7523 39.3669 34.7521Z" fill="#F2F3F3"/>
<path d="M49.3516 46.5617C49.3178 46.5617 49.2843 46.5617 49.2505 46.5592C48.7204 46.5289 48.2205 46.3026 47.8481 45.9242L38.9723 37.0484C38.594 36.6759 38.3677 36.1761 38.3373 35.646C38.321 35.3892 38.3593 35.1319 38.4497 34.8911C38.5402 34.6502 38.6806 34.4312 38.8619 34.2486L42.4074 30.7023C42.7941 30.3471 43.3058 30.1593 43.8305 30.18C44.3553 30.2008 44.8505 30.4284 45.208 30.8131L54.0834 39.6885C54.4682 40.0459 54.6959 40.5411 54.7166 41.0659C54.7374 41.5907 54.5495 42.1024 54.1942 42.4891L50.6478 46.0346C50.4776 46.204 50.2753 46.3379 50.0527 46.4284C49.8302 46.5189 49.5919 46.5642 49.3516 46.5617ZM43.7086 31.0121C43.5779 31.0098 43.448 31.0336 43.3265 31.082C43.2051 31.1303 43.0944 31.2023 43.0009 31.2938L39.453 34.8397C39.3547 34.94 39.2788 35.0601 39.2305 35.192C39.1821 35.3239 39.1624 35.4645 39.1725 35.6046C39.1923 35.9276 39.3316 36.2316 39.5633 36.4573L48.4391 45.3315C48.6649 45.5632 48.9689 45.7025 49.2919 45.7223C49.4319 45.7318 49.5724 45.7118 49.7042 45.6634C49.8359 45.6151 49.9561 45.5396 50.0568 45.4418L53.6031 41.8959C53.8013 41.6659 53.9008 41.3671 53.88 41.0642C53.8593 40.7613 53.72 40.4787 53.4923 40.2779L44.6169 31.4041C44.3771 31.1584 44.0499 31.0173 43.7065 31.0116L43.7086 31.0121ZM7.62478 54.8201H0.798005C0.687144 54.8201 0.580825 54.776 0.502434 54.6977C0.424044 54.6193 0.380005 54.5129 0.380005 54.4021V31.7394C0.380005 31.6285 0.424044 31.5222 0.502434 31.4438C0.580825 31.3654 0.687144 31.3214 0.798005 31.3214H7.62478C7.73564 31.3214 7.84196 31.3654 7.92035 31.4438C7.99874 31.5222 8.04278 31.6285 8.04278 31.7394V54.4021C8.04278 54.5129 7.99874 54.6193 7.92035 54.6977C7.84196 54.776 7.73564 54.8201 7.62478 54.8201ZM1.216 53.9841H7.20678V32.1574H1.216V53.9841ZM21.0045 54.8201H14.179C14.0682 54.8201 13.9618 54.776 13.8834 54.6977C13.8051 54.6193 13.761 54.5129 13.761 54.4021V21.4595C13.761 21.3486 13.8051 21.2423 13.8834 21.1639C13.9618 21.0855 14.0682 21.0415 14.179 21.0415H17.5728C17.6836 21.0415 17.7899 21.0855 17.8683 21.1639C17.9467 21.2423 17.9908 21.3486 17.9908 21.4595C17.9908 21.5704 17.9467 21.6767 17.8683 21.7551C17.7899 21.8335 17.6836 21.8775 17.5728 21.8775H14.597V53.9841H20.5865V30.0118C20.5865 29.9009 20.6306 29.7946 20.709 29.7162C20.7874 29.6378 20.8937 29.5938 21.0045 29.5938C21.1154 29.5938 21.2217 29.6378 21.3001 29.7162C21.3785 29.7946 21.4225 29.9009 21.4225 30.0118V54.4021C21.4225 54.5129 21.3785 54.6193 21.3001 54.6977C21.2217 54.776 21.1154 54.8201 21.0045 54.8201ZM34.3851 54.8201H27.5592C27.4483 54.8201 27.342 54.776 27.2636 54.6977C27.1852 54.6193 27.1412 54.5129 27.1412 54.4021V33.5104C27.1412 33.3996 27.1852 33.2933 27.2636 33.2149C27.342 33.1365 27.4483 33.0924 27.5592 33.0924C27.6701 33.0924 27.7764 33.1365 27.8548 33.2149C27.9332 33.2933 27.9772 33.3996 27.9772 33.5104V53.9841H33.9671V32.7706C33.9671 32.6597 34.0112 32.5534 34.0896 32.475C34.168 32.3966 34.2743 32.3526 34.3851 32.3526C34.496 32.3526 34.6023 32.3966 34.6807 32.475C34.7591 32.5534 34.8031 32.6597 34.8031 32.7706V54.4021C34.8031 54.5129 34.7591 54.6193 34.6807 54.6977C34.6023 54.776 34.496 54.8201 34.3851 54.8201Z" fill="#F2F3F3"/>
<path d="M47.7612 34.3756C47.6503 34.3756 47.544 34.3316 47.4656 34.2532C47.3872 34.1748 47.3432 34.0685 47.3432 33.9576V1.31598H41.3532V16.899C41.3532 17.0099 41.3092 17.1162 41.2308 17.1946C41.1524 17.273 41.0461 17.317 40.9352 17.317C40.8244 17.317 40.718 17.273 40.6396 17.1946C40.5613 17.1162 40.5172 17.0099 40.5172 16.899V0.89798C40.5172 0.78712 40.5613 0.6808 40.6396 0.60241C40.718 0.52402 40.8244 0.47998 40.9352 0.47998H47.7612C47.872 0.47998 47.9783 0.52402 48.0567 0.60241C48.1351 0.6808 48.1792 0.78712 48.1792 0.89798V33.9576C48.1792 34.0685 48.1351 34.1748 48.0567 34.2532C47.9783 34.3316 47.872 34.3756 47.7612 34.3756ZM47.7612 54.82H40.9352C40.8244 54.82 40.718 54.7759 40.6396 54.6976C40.5613 54.6192 40.5172 54.5128 40.5172 54.402V38.4218C40.5172 38.311 40.5613 38.2047 40.6396 38.1263C40.718 38.0479 40.8244 38.0038 40.9352 38.0038C41.0461 38.0038 41.1524 38.0479 41.2308 38.1263C41.3092 38.2047 41.3532 38.311 41.3532 38.4218V53.984H47.3432V45.2478C47.3432 45.1369 47.3872 45.0306 47.4656 44.9522C47.544 44.8738 47.6503 44.8298 47.7612 44.8298C47.872 44.8298 47.9783 44.8738 48.0567 44.9522C48.1351 45.0306 48.1792 45.1369 48.1792 45.2478V54.402C48.1792 54.5128 48.1351 54.6192 48.0567 54.6976C47.9783 54.7759 47.872 54.82 47.7612 54.82Z" fill="#F2F3F3"/>
</svg>
