<svg width="57" height="57" viewBox="0 0 57 57" fill="none" xmlns="http://www.w3.org/2000/svg">
<path d="M51.5363 12.7323L55.624 8.64462C56.0405 8.2281 56.1471 7.61472 55.8956 7.08197C55.6439 6.54933 55.1036 6.24247 54.5161 6.29911L49.2145 6.81565L49.7311 1.51411C49.7883 0.927785 49.4809 0.38638 48.9481 0.134739C48.4156 -0.116901 47.8022 -0.0103074 47.3856 0.406318L43.2749 4.51703C38.7452 1.58674 33.5024 0.0405246 28.075 0.0405246C20.5892 0.0405246 13.5516 2.9557 8.25827 8.24891C2.96516 13.542 0.0499878 20.5798 0.0499878 28.0656C0.0499878 32.9829 1.34193 37.8203 3.78603 42.0552C3.84027 42.1492 3.91251 42.2317 3.99862 42.2978C4.08473 42.3639 4.18303 42.4124 4.28789 42.4405C4.39275 42.4686 4.50212 42.4758 4.60976 42.4616C4.71739 42.4474 4.82118 42.4122 4.91518 42.3579C5.10507 42.2483 5.24364 42.0678 5.30042 41.856C5.35721 41.6443 5.32756 41.4186 5.21799 41.2287C2.9186 37.2449 1.70323 32.6931 1.70323 28.0655C1.70323 21.0213 4.44641 14.3988 9.4274 9.41783C14.4083 4.43684 21.0309 1.69366 28.075 1.69366C33.063 1.69366 37.8848 3.08157 42.0775 5.71465L39.2895 8.50275C39.1452 8.64649 39.0346 8.82056 38.9659 9.01231C38.8972 9.20407 38.8721 9.40872 38.8922 9.61141L39.034 11.0584C35.7705 8.94577 32.0126 7.83579 28.0749 7.83579C16.9202 7.83579 7.84515 16.9107 7.84515 28.0655C7.84515 39.2203 16.9202 48.2953 28.0749 48.2953C39.2296 48.2953 48.3046 39.2203 48.3046 28.0655C48.3046 24.0843 47.1703 20.2882 45.0127 17.0002L46.4189 17.1381C46.6215 17.1583 46.8261 17.1332 47.0179 17.0645C47.2096 16.9958 47.3836 16.8853 47.5273 16.741L50.3404 13.928C53.0294 18.152 54.4466 23.0199 54.4466 28.0655C54.4466 29.1826 54.3761 30.3071 54.2372 31.4075C54.2233 31.5153 54.2308 31.6248 54.2593 31.7298C54.2878 31.8347 54.3367 31.9329 54.4032 32.0189C54.4698 32.1049 54.5526 32.1769 54.647 32.2309C54.7414 32.2848 54.8455 32.3195 54.9534 32.3332C55.0612 32.3468 55.1707 32.339 55.2756 32.3102C55.3804 32.2815 55.4786 32.2323 55.5644 32.1656C55.6502 32.0989 55.722 32.0158 55.7757 31.9213C55.8294 31.8268 55.8639 31.7226 55.8773 31.6147C56.0256 30.4374 56.1 29.252 56.1 28.0654C56.1 22.5805 54.5236 17.2926 51.5363 12.7323ZM46.6516 28.0656C46.6516 38.3087 38.3183 46.6421 28.0751 46.6421C17.8319 46.6421 9.4985 38.3087 9.4985 28.0656C9.4985 17.8225 17.8318 9.48904 28.075 9.48904C32.1458 9.48904 36.0068 10.7802 39.2461 13.2226L39.4535 15.3403L39.4542 15.3459L36.2783 18.5673C34.0763 16.6629 31.2078 15.5095 28.075 15.5095C21.1515 15.5095 15.5188 21.1422 15.5188 28.0656C15.5188 34.9891 21.1514 40.6218 28.075 40.6218C34.9986 40.6218 40.6312 34.9891 40.6312 28.0655C40.6312 24.8686 39.4296 21.9476 37.4551 19.7285L40.5781 16.5608C40.6151 16.5675 40.6524 16.5732 40.6903 16.5769L42.8399 16.7875C42.8471 16.7978 42.8535 16.8084 42.8612 16.8186C45.3408 20.0733 46.6516 23.9625 46.6516 28.0656ZM27.4946 28.6541C27.6491 28.8069 27.8577 28.8924 28.075 28.8921C28.2885 28.8921 28.5018 28.8099 28.6636 28.6459L31.8401 25.424C32.3667 26.1724 32.6772 27.0832 32.6772 28.0657C32.6772 30.6034 30.6126 32.6679 28.075 32.6679C25.5373 32.6679 23.4728 30.6034 23.4728 28.0657C23.4728 25.5281 25.5373 23.4636 28.075 23.4636C28.9987 23.4626 29.9011 23.7412 30.6635 24.2629L27.4864 27.4853C27.3325 27.6414 27.2469 27.8523 27.2484 28.0714C27.25 28.2906 27.3385 28.5002 27.4946 28.6541ZM31.8373 23.0719C30.7896 22.2805 29.4862 21.8102 28.075 21.8102C24.6257 21.8102 21.8196 24.6164 21.8196 28.0656C21.8196 31.5149 24.6257 34.321 28.075 34.321C31.5242 34.321 34.3304 31.5149 34.3304 28.0656C34.3304 26.6225 33.8379 25.2931 33.0139 24.2335L36.2926 20.908C37.9642 22.8246 38.978 25.3288 38.978 28.0656C38.978 34.0775 34.087 38.9686 28.0751 38.9686C22.0632 38.9686 17.1722 34.0775 17.1722 28.0656C17.1722 22.0538 22.0632 17.1627 28.0751 17.1627C30.7564 17.1627 33.2141 18.1361 35.1151 19.7475L31.8373 23.0719ZM46.4506 15.4799L41.1352 14.9592C41.115 14.9335 41.0932 14.9091 41.0701 14.886L40.5504 9.57964L48.0113 2.11883L47.5368 6.98874C47.5167 7.19127 47.542 7.39583 47.6107 7.5874C47.6794 7.77897 47.7898 7.95288 47.934 8.09653C48.0778 8.24052 48.2517 8.35081 48.4432 8.41944C48.6348 8.48808 48.8392 8.51335 49.0417 8.49343L53.9116 8.01896L46.4506 15.4799Z" fill="#F2F3F3"/>
<path d="M54.0202 36.2928C53.8133 36.2204 53.5861 36.233 53.3886 36.328C53.191 36.4229 53.0392 36.5924 52.9665 36.7992C49.2651 47.3492 39.2619 54.4376 28.0749 54.4376C24.3026 54.4376 20.6608 53.6581 17.2502 52.1209C13.9546 50.6356 11.0424 48.523 8.59462 45.842C8.44644 45.6814 8.24073 45.5861 8.02244 45.5767C7.80416 45.5674 7.59105 45.6449 7.4297 45.7922C7.26836 45.9395 7.17189 46.1447 7.16139 46.3629C7.15089 46.5812 7.22721 46.7947 7.37366 46.9568C9.97431 49.805 13.0688 52.0497 16.5709 53.6281C20.1965 55.2623 24.067 56.0907 28.0749 56.0907C39.9629 56.0907 50.593 48.5579 54.5265 37.3464C54.5625 37.2439 54.5779 37.1354 54.5719 37.0271C54.5659 36.9187 54.5386 36.8125 54.4916 36.7147C54.4446 36.6169 54.3787 36.5293 54.2978 36.4569C54.217 36.3845 54.1226 36.3287 54.0202 36.2928Z" fill="#F2F3F3"/>
</svg>
